<svg width="32" height="41" viewBox="0 0 32 41" fill="none" xmlns="http://www.w3.org/2000/svg">
    <path d="M31.4377 5.44142C31.5034 5.44151 31.5691 5.4416 31.6368 5.44169C31.7119 5.44186 31.7119 5.44186 31.7885 5.44204C31.79 7.37697 31.7912 9.31191 31.7919 11.2468C31.792 11.475 31.7921 11.7032 31.7921 11.9314C31.7922 11.9996 31.7922 11.9996 31.7922 12.0691C31.7925 12.8057 31.793 13.5423 31.7936 14.2789C31.7942 15.0341 31.7946 15.7894 31.7947 16.5446C31.7948 16.9691 31.795 17.3935 31.7955 17.818C31.796 18.217 31.7961 18.616 31.796 19.0149C31.796 19.1619 31.7962 19.3088 31.7964 19.4557C31.7967 19.6553 31.7967 19.8549 31.7965 20.0545C31.7968 20.143 31.7968 20.143 31.7971 20.2332C31.7961 20.6319 31.7961 20.6319 31.7221 20.7058C31.614 20.7218 31.5053 20.7338 31.3965 20.7442C26.5589 21.2371 22.0502 23.4239 18.9097 27.1971C18.8212 27.3108 18.7341 27.4256 18.6483 27.5414C18.6198 27.5796 18.5912 27.6178 18.5617 27.6571C18.2098 28.1279 17.8666 28.6042 17.5362 29.0903C17.4954 29.1448 17.4954 29.1448 17.4538 29.2005C17.4319 29.2005 17.41 29.2005 17.3874 29.2005C17.3827 27.8782 17.3792 26.5558 17.3771 25.2335C17.3761 24.6193 17.3747 24.0052 17.3724 23.391C17.3704 22.8549 17.3691 22.3188 17.3687 21.7828C17.3684 21.4996 17.3678 21.2165 17.3664 20.9333C17.3533 18.3151 17.6501 15.8369 18.8474 13.4721C18.8702 13.4265 18.893 13.381 18.9164 13.334C19.2454 12.6782 19.6044 12.0716 20.042 11.4812C20.0677 11.446 20.0935 11.4108 20.12 11.3745C20.5426 10.7979 21.0075 10.2713 21.502 9.75572C21.5615 9.69276 21.6209 9.6298 21.6822 9.56493C22.1403 9.09137 22.635 8.68928 23.1611 8.29571C23.2169 8.25323 23.2169 8.25323 23.2739 8.2099C25.2491 6.71048 27.729 5.75098 30.1957 5.5084C30.2689 5.50113 30.342 5.49386 30.4174 5.48637C30.7585 5.45652 31.0953 5.44082 31.4377 5.44142Z" fill="#EBB200"/>
    <path d="M0 12.875C3.29496 12.875 6.51713 13.9085 9.09192 15.9941C9.15865 16.0474 9.22538 16.1007 9.29412 16.1556C10.217 16.9061 11.0472 17.7526 11.7465 18.7151C11.7973 18.7844 11.8481 18.8537 11.9005 18.925C13.0878 20.5922 13.8858 22.4221 14.3306 24.4224C14.343 24.4777 14.3554 24.533 14.3682 24.5899C14.6057 25.7432 14.6187 26.903 14.6131 28.0753C14.6129 28.2312 14.6127 28.3871 14.6126 28.543C14.6121 28.949 14.6108 29.3549 14.6093 29.7609C14.6079 30.1769 14.6073 30.5929 14.6066 31.0089C14.6052 31.8219 14.603 32.635 14.6002 33.448C14.3622 33.215 14.1706 32.9874 13.9863 32.7097C13.0682 31.3541 11.8559 30.0614 10.5519 29.0679C10.4903 29.02 10.4287 28.9721 10.3653 28.9227C9.52044 28.2756 8.63613 27.7113 7.69827 27.2097C7.65755 27.1877 7.61683 27.1656 7.57487 27.1429C5.85204 26.2175 3.98017 25.618 2.0573 25.2851C1.98073 25.2717 1.90417 25.2583 1.82528 25.2444C1.21897 25.1453 0.611645 25.0876 0 25.0197C0 21.0119 0 17.0042 0 12.875Z" fill="#EBB200"/>
    <path d="M31.7886 23.3605C31.7938 23.8134 31.7972 24.2662 31.7996 24.7191C31.8005 24.8724 31.8019 25.0256 31.8036 25.1789C31.8186 26.5295 31.7441 27.865 31.4112 29.1799C31.3859 29.282 31.3859 29.282 31.3601 29.3861C31.1819 30.0766 30.9414 30.7359 30.6604 31.3906C30.6376 31.4441 30.6148 31.4977 30.5912 31.5528C29.9883 32.9437 29.145 34.3404 28.0469 35.3978C27.9347 35.51 27.8334 35.6278 27.7321 35.7499C26.7277 36.9026 25.4326 37.7799 24.0904 38.4916C24.0166 38.531 24.0166 38.531 23.9413 38.5711C22.6224 39.2627 21.1804 39.7231 19.7103 39.9516C19.6645 39.9592 19.6186 39.9668 19.5714 39.9746C19.039 40.0613 18.5232 40.0915 17.9851 40.0875C17.9273 40.0873 17.8696 40.087 17.81 40.0868C17.6692 40.0862 17.5284 40.0853 17.3875 40.0844C17.3455 37.1389 17.3455 37.1389 17.5866 36.0361C17.6005 35.9705 17.6144 35.9048 17.6287 35.8371C18.3958 32.2699 20.2876 29.026 23.1613 26.7451C23.2254 26.6931 23.2896 26.6411 23.3557 26.5875C23.9667 26.1024 24.6161 25.6858 25.2849 25.2851C25.3268 25.26 25.3687 25.2348 25.4118 25.2089C27.2512 24.1228 29.6375 23.3464 31.7886 23.3605Z" fill="#EBB200"/>
    <path d="M8.69382 0C8.9397 0.0394563 9.13198 0.108456 9.35228 0.223721C9.4143 0.256015 9.47631 0.288309 9.54021 0.321582C9.63864 0.373873 9.63864 0.373873 9.73906 0.427221C9.84115 0.48118 9.84115 0.48118 9.9453 0.536229C10.7454 0.962 11.5242 1.39556 12.2526 1.93701C12.3163 1.9843 12.3163 1.9843 12.3812 2.03254C12.6419 2.23189 12.875 2.44715 13.1027 2.68345C13.2178 2.8021 13.2178 2.8021 13.4057 2.94907C15.3441 4.60476 16.3923 7.40492 16.5912 9.88829C16.6565 11.2968 16.5171 12.6489 16.1266 14.0029C16.1044 14.0813 16.0821 14.1598 16.0592 14.2406C15.7624 15.2053 15.2975 16.1141 14.7993 16.9893C13.7903 16.6933 12.832 16.1119 12.012 15.4629C11.9476 15.4123 11.8832 15.3618 11.8168 15.3097C11.6359 15.1645 11.4584 15.0163 11.282 14.8656C11.2262 14.818 11.1703 14.7703 11.1128 14.7212C8.83451 12.7264 7.45201 9.77609 7.2338 6.76917C7.18779 5.83414 7.22463 4.9071 7.36653 3.98186C7.37667 3.91473 7.37667 3.91473 7.38701 3.84625C7.59948 2.48783 8.05521 1.21609 8.69382 0Z" fill="#EBB200"/>
    <path d="M0.132812 27.4082C2.40334 27.4459 4.64895 28.2031 6.63652 29.2664C6.71326 29.3071 6.79 29.3478 6.86906 29.3898C7.84323 29.9262 8.72537 30.5877 9.55655 31.3237C9.61738 31.3772 9.6782 31.4306 9.74087 31.4857C10.2478 31.9362 10.7033 32.3955 11.1283 32.9247C11.2273 33.0476 11.3276 33.1694 11.4295 33.2897C13.045 35.2043 14.3467 37.8404 14.6002 40.3493C13.0771 40.3256 11.6133 40.1284 10.1538 39.6856C10.108 39.6718 10.0622 39.658 10.015 39.6437C7.35714 38.8217 4.89265 37.0998 3.18557 34.9074C3.14135 34.8524 3.14135 34.8524 3.09624 34.7964C1.39567 32.6828 0.410964 30.0946 0.132812 27.4082Z" fill="#EBB200"/>
</svg>
