<svg width="36" height="36" viewBox="0 0 36 36" fill="none" xmlns="http://www.w3.org/2000/svg">
  <g clip-path="url(#clip0_advantage_zoom)">
    <mask id="mask0_advantage_zoom" style="mask-type:luminance" maskUnits="userSpaceOnUse" x="0" y="0" width="36" height="36">
      <path d="M0 0H36V36H0V0Z" fill="white"/>
      <path fill-rule="evenodd" clip-rule="evenodd" d="M11.329 11.3288C10.614 12.0342 10.0457 12.8741 9.65668 13.8001C9.26767 14.726 9.06566 15.7198 9.0623 16.7242C9.05893 17.7285 9.25427 18.7236 9.63707 19.6522C10.0199 20.5807 10.5826 21.4244 11.2928 22.1346C12.0029 22.8447 12.8466 23.4074 13.7751 23.7902C14.7037 24.173 15.6988 24.3684 16.7032 24.365C17.7075 24.3616 18.7013 24.1596 19.6272 23.7706C20.5532 23.3816 21.3931 22.8133 22.0985 22.0984C23.5108 20.6669 24.2997 18.735 24.293 16.7242C24.2862 14.7133 23.4844 12.7867 22.0625 11.3648C20.6406 9.94286 18.714 9.14106 16.7032 9.13432C14.6923 9.12758 12.7604 9.91646 11.329 11.3288ZM21.1196 21.1194C20.5435 21.7094 19.8561 22.1792 19.0972 22.5015C18.3383 22.8239 17.5229 22.9924 16.6984 22.9973C15.8739 23.0022 15.0565 22.8434 14.2938 22.5301C13.5311 22.2167 12.8382 21.7552 12.2552 21.1721C11.6722 20.589 11.2107 19.896 10.8976 19.1332C10.5844 18.3705 10.4257 17.5532 10.4307 16.7286C10.4358 15.9041 10.6044 15.0888 10.9268 14.3299C11.2493 13.571 11.7192 12.8837 12.3093 12.3077C13.4778 11.1392 15.0626 10.4828 16.7151 10.4828C18.3676 10.4828 19.9524 11.1392 21.1209 12.3077C22.2895 13.4762 22.9459 15.0611 22.9459 16.7136C22.9459 18.3661 22.2881 19.9509 21.1196 21.1194Z" fill="black"/>
      <path d="M20.7693 23.7059C20.5171 23.4448 20.3775 23.095 20.3807 22.732C20.3838 22.3689 20.5294 22.0216 20.7862 21.7649C21.0429 21.5082 21.3902 21.3626 21.7532 21.3594C22.1162 21.3563 22.466 21.4958 22.7271 21.7481L27.9734 26.9944C28.2257 27.2555 28.3652 27.6053 28.3621 27.9683C28.3589 28.3313 28.2133 28.6786 27.9566 28.9353C27.6999 29.1921 27.3526 29.3377 26.9895 29.3408C26.6265 29.344 26.2767 29.2044 26.0156 28.9522L20.7693 23.7059Z" fill="black"/>
    </mask>
    <g mask="url(#mask0_advantage_zoom)">
      <path d="M18 36C27.9411 36 36 27.9411 36 18C36 8.05888 27.9411 0 18 0C8.05888 0 0 8.05888 0 18C0 27.9411 8.05888 36 18 36Z" fill="#513172"/>
    </g>
  </g>
  <defs>
    <clipPath id="clip0_advantage_zoom">
      <rect width="36" height="36" fill="white"/>
    </clipPath>
  </defs>
</svg>
